<svg width="375" height="32" viewBox="0 0 375 32" fill="none" xmlns="http://www.w3.org/2000/svg">
<g clip-path="url(#clip0_3795_39569)">
<mask id="mask0_3795_39569" style="mask-type:luminance" maskUnits="userSpaceOnUse" x="0" y="0" width="375" height="32">
<path d="M375 0H0V32H375V0Z" fill="white"/>
</mask>
<g mask="url(#mask0_3795_39569)">
<path d="M375 0H0V32H375V0Z" fill="white"/>
<path d="M16 2C16 0.89543 16.8954 0 18 0H30C31.1046 0 32 0.895431 32 2V22.0362C32 22.8535 31.0728 23.3257 30.4118 22.845L25.1763 19.0373C24.475 18.5273 23.525 18.5273 22.8237 19.0373L17.5882 22.845C16.9272 23.3257 16 22.8535 16 22.0362V2Z" fill="#E86868"/>
<path d="M51.1641 8.83496H52.4766C52.4082 9.46387 52.2282 10.0267 51.9365 10.5234C51.6449 11.0202 51.2324 11.4144 50.6992 11.7061C50.166 11.9932 49.5007 12.1367 48.7031 12.1367C48.1198 12.1367 47.5889 12.0273 47.1104 11.8086C46.6364 11.5898 46.2285 11.2799 45.8867 10.8789C45.5449 10.4733 45.2806 9.98796 45.0938 9.42285C44.9115 8.85319 44.8203 8.21973 44.8203 7.52246V6.53125C44.8203 5.83398 44.9115 5.2028 45.0938 4.6377C45.2806 4.06803 45.5472 3.5804 45.8936 3.1748C46.2445 2.76921 46.666 2.45703 47.1582 2.23828C47.6504 2.01953 48.2041 1.91016 48.8193 1.91016C49.5713 1.91016 50.207 2.05143 50.7266 2.33398C51.2461 2.61654 51.6494 3.00846 51.9365 3.50977C52.2282 4.00651 52.4082 4.58301 52.4766 5.23926H51.1641C51.1003 4.77441 50.9818 4.37565 50.8086 4.04297C50.6354 3.70573 50.3893 3.44596 50.0703 3.26367C49.7513 3.08138 49.3343 2.99023 48.8193 2.99023C48.3773 2.99023 47.9876 3.07454 47.6504 3.24316C47.3177 3.41178 47.0374 3.65104 46.8096 3.96094C46.5863 4.27083 46.4176 4.64225 46.3037 5.0752C46.1898 5.50814 46.1328 5.98893 46.1328 6.51758V7.52246C46.1328 8.01009 46.1829 8.4681 46.2832 8.89648C46.388 9.32487 46.5452 9.70085 46.7549 10.0244C46.9645 10.348 47.2311 10.6032 47.5547 10.79C47.8783 10.9723 48.2611 11.0635 48.7031 11.0635C49.2637 11.0635 49.7103 10.9746 50.043 10.7969C50.3757 10.6191 50.6263 10.3639 50.7949 10.0312C50.9681 9.69857 51.0911 9.2998 51.1641 8.83496ZM53.748 8.38379V8.22656C53.748 7.69336 53.8255 7.19889 53.9805 6.74316C54.1354 6.28288 54.3587 5.88411 54.6504 5.54688C54.9421 5.20508 55.2952 4.94076 55.71 4.75391C56.1247 4.5625 56.5895 4.4668 57.1045 4.4668C57.624 4.4668 58.0911 4.5625 58.5059 4.75391C58.9251 4.94076 59.2806 5.20508 59.5723 5.54688C59.8685 5.88411 60.0941 6.28288 60.249 6.74316C60.404 7.19889 60.4814 7.69336 60.4814 8.22656V8.38379C60.4814 8.91699 60.404 9.41146 60.249 9.86719C60.0941 10.3229 59.8685 10.7217 59.5723 11.0635C59.2806 11.4007 58.9274 11.665 58.5127 11.8564C58.1025 12.0433 57.6377 12.1367 57.1182 12.1367C56.5986 12.1367 56.1315 12.0433 55.7168 11.8564C55.3021 11.665 54.9466 11.4007 54.6504 11.0635C54.3587 10.7217 54.1354 10.3229 53.9805 9.86719C53.8255 9.41146 53.748 8.91699 53.748 8.38379ZM55.0127 8.22656V8.38379C55.0127 8.75293 55.056 9.10156 55.1426 9.42969C55.2292 9.75326 55.359 10.0404 55.5322 10.291C55.71 10.5417 55.931 10.7399 56.1953 10.8857C56.4596 11.027 56.7673 11.0977 57.1182 11.0977C57.4645 11.0977 57.7676 11.027 58.0273 10.8857C58.2917 10.7399 58.5104 10.5417 58.6836 10.291C58.8568 10.0404 58.9867 9.75326 59.0732 9.42969C59.1644 9.10156 59.21 8.75293 59.21 8.38379V8.22656C59.21 7.86198 59.1644 7.5179 59.0732 7.19434C58.9867 6.86621 58.8545 6.57682 58.6768 6.32617C58.5036 6.07096 58.2848 5.87044 58.0205 5.72461C57.7607 5.57878 57.4554 5.50586 57.1045 5.50586C56.7581 5.50586 56.4528 5.57878 56.1885 5.72461C55.9287 5.87044 55.71 6.07096 55.5322 6.32617C55.359 6.57682 55.2292 6.86621 55.1426 7.19434C55.056 7.5179 55.0127 7.86198 55.0127 8.22656ZM63.3252 6.07324V12H62.0537V4.60352H63.2568L63.3252 6.07324ZM63.0654 8.02148L62.4775 8.00098C62.4821 7.49512 62.5482 7.02799 62.6758 6.59961C62.8034 6.16667 62.9925 5.79069 63.2432 5.47168C63.4938 5.15267 63.806 4.90658 64.1797 4.7334C64.5534 4.55566 64.9863 4.4668 65.4785 4.4668C65.8249 4.4668 66.1439 4.51693 66.4355 4.61719C66.7272 4.71289 66.9801 4.86556 67.1943 5.0752C67.4085 5.28483 67.5749 5.55371 67.6934 5.88184C67.8118 6.20996 67.8711 6.60645 67.8711 7.07129V12H66.6064V7.13281C66.6064 6.74544 66.5404 6.43555 66.4082 6.20312C66.2806 5.9707 66.0983 5.80208 65.8613 5.69727C65.6243 5.58789 65.3464 5.5332 65.0273 5.5332C64.6536 5.5332 64.3415 5.59928 64.0908 5.73145C63.8402 5.86361 63.6396 6.0459 63.4893 6.27832C63.3389 6.51074 63.2295 6.77734 63.1611 7.07812C63.0973 7.37435 63.0654 7.6888 63.0654 8.02148ZM67.8574 7.32422L67.0098 7.58398C67.0143 7.17839 67.0804 6.78874 67.208 6.41504C67.3402 6.04134 67.5293 5.70866 67.7754 5.41699C68.026 5.12533 68.3337 4.89518 68.6982 4.72656C69.0628 4.55339 69.4798 4.4668 69.9492 4.4668C70.3457 4.4668 70.6966 4.51921 71.002 4.62402C71.3118 4.72884 71.5716 4.89062 71.7812 5.10938C71.9954 5.32357 72.1572 5.59928 72.2666 5.93652C72.376 6.27376 72.4307 6.6748 72.4307 7.13965V12H71.1592V7.12598C71.1592 6.71126 71.0931 6.38997 70.9609 6.16211C70.8333 5.92969 70.651 5.7679 70.4141 5.67676C70.1816 5.58105 69.9036 5.5332 69.5801 5.5332C69.3021 5.5332 69.056 5.58105 68.8418 5.67676C68.6276 5.77246 68.4476 5.90462 68.3018 6.07324C68.1559 6.2373 68.0443 6.42643 67.9668 6.64062C67.8939 6.85482 67.8574 7.08268 67.8574 7.32422ZM75.6094 6.02539V14.8438H74.3379V4.60352H75.5L75.6094 6.02539ZM80.5928 8.24023V8.38379C80.5928 8.92155 80.529 9.42057 80.4014 9.88086C80.2738 10.3366 80.0869 10.7331 79.8408 11.0703C79.5993 11.4076 79.3008 11.6696 78.9453 11.8564C78.5898 12.0433 78.182 12.1367 77.7217 12.1367C77.2523 12.1367 76.8376 12.0592 76.4775 11.9043C76.1175 11.7493 75.8122 11.5238 75.5615 11.2275C75.3109 10.9313 75.1104 10.5758 74.96 10.1611C74.8141 9.74642 74.7139 9.2793 74.6592 8.75977V7.99414C74.7139 7.44727 74.8164 6.95736 74.9668 6.52441C75.1172 6.09147 75.3154 5.72233 75.5615 5.41699C75.8122 5.1071 76.1152 4.8724 76.4707 4.71289C76.8262 4.54883 77.2363 4.4668 77.7012 4.4668C78.166 4.4668 78.5785 4.55794 78.9385 4.74023C79.2985 4.91797 79.6016 5.17318 79.8477 5.50586C80.0938 5.83854 80.2783 6.2373 80.4014 6.70215C80.529 7.16243 80.5928 7.67513 80.5928 8.24023ZM79.3213 8.38379V8.24023C79.3213 7.87109 79.2826 7.52474 79.2051 7.20117C79.1276 6.87305 79.0068 6.58594 78.8428 6.33984C78.6833 6.08919 78.4782 5.89323 78.2275 5.75195C77.9769 5.60612 77.6784 5.5332 77.332 5.5332C77.013 5.5332 76.735 5.58789 76.498 5.69727C76.2656 5.80664 76.0674 5.95475 75.9033 6.1416C75.7393 6.32389 75.6048 6.53353 75.5 6.77051C75.3997 7.00293 75.3245 7.24447 75.2744 7.49512V9.26562C75.3656 9.58464 75.4932 9.88542 75.6572 10.168C75.8213 10.446 76.04 10.6715 76.3135 10.8447C76.5869 11.0133 76.931 11.0977 77.3457 11.0977C77.6875 11.0977 77.9814 11.027 78.2275 10.8857C78.4782 10.7399 78.6833 10.5417 78.8428 10.291C79.0068 10.0404 79.1276 9.75326 79.2051 9.42969C79.2826 9.10156 79.3213 8.75293 79.3213 8.38379ZM83.5801 1.5V12H82.3086V1.5H83.5801ZM88.6797 12.1367C88.1647 12.1367 87.6976 12.0501 87.2783 11.877C86.8636 11.6992 86.5059 11.4508 86.2051 11.1318C85.9089 10.8128 85.681 10.4346 85.5215 9.99707C85.362 9.55957 85.2822 9.08105 85.2822 8.56152V8.27441C85.2822 7.67285 85.3711 7.13737 85.5488 6.66797C85.7266 6.19401 85.9681 5.79297 86.2734 5.46484C86.5788 5.13672 86.9251 4.88835 87.3125 4.71973C87.6999 4.55111 88.1009 4.4668 88.5156 4.4668C89.0443 4.4668 89.5 4.55794 89.8828 4.74023C90.2702 4.92253 90.5869 5.17773 90.833 5.50586C91.0791 5.82943 91.2614 6.21224 91.3799 6.6543C91.4984 7.0918 91.5576 7.57031 91.5576 8.08984V8.65723H86.0342V7.625H90.293V7.5293C90.2747 7.20117 90.2064 6.88216 90.0879 6.57227C89.974 6.26237 89.7917 6.00716 89.541 5.80664C89.2904 5.60612 88.9486 5.50586 88.5156 5.50586C88.2285 5.50586 87.9642 5.56738 87.7227 5.69043C87.4811 5.80892 87.2738 5.98665 87.1006 6.22363C86.9274 6.46061 86.793 6.75 86.6973 7.0918C86.6016 7.43359 86.5537 7.8278 86.5537 8.27441V8.56152C86.5537 8.91243 86.6016 9.24284 86.6973 9.55273C86.7975 9.85807 86.9411 10.127 87.1279 10.3594C87.3193 10.5918 87.5495 10.7741 87.8184 10.9062C88.0918 11.0384 88.4017 11.1045 88.748 11.1045C89.1947 11.1045 89.5729 11.0133 89.8828 10.8311C90.1927 10.6488 90.4639 10.4049 90.6963 10.0996L91.4619 10.708C91.3024 10.9495 91.0996 11.1797 90.8535 11.3984C90.6074 11.6172 90.3044 11.7949 89.9443 11.9316C89.5889 12.0684 89.1673 12.1367 88.6797 12.1367ZM96.1309 4.60352V5.57422H92.1318V4.60352H96.1309ZM93.4854 2.80566H94.75V10.168C94.75 10.4186 94.7887 10.6077 94.8662 10.7354C94.9437 10.863 95.0439 10.9473 95.167 10.9883C95.29 11.0293 95.4222 11.0498 95.5635 11.0498C95.6683 11.0498 95.7777 11.0407 95.8916 11.0225C96.0101 10.9997 96.099 10.9814 96.1582 10.9678L96.165 12C96.0648 12.0319 95.9326 12.0615 95.7686 12.0889C95.609 12.1208 95.4154 12.1367 95.1875 12.1367C94.8776 12.1367 94.5928 12.0752 94.333 11.9521C94.0732 11.8291 93.8659 11.624 93.7109 11.3369C93.5605 11.0452 93.4854 10.6533 93.4854 10.1611V2.80566ZM100.684 12.1367C100.169 12.1367 99.7015 12.0501 99.2822 11.877C98.8675 11.6992 98.5098 11.4508 98.209 11.1318C97.9128 10.8128 97.6849 10.4346 97.5254 9.99707C97.3659 9.55957 97.2861 9.08105 97.2861 8.56152V8.27441C97.2861 7.67285 97.375 7.13737 97.5527 6.66797C97.7305 6.19401 97.972 5.79297 98.2773 5.46484C98.5827 5.13672 98.929 4.88835 99.3164 4.71973C99.7038 4.55111 100.105 4.4668 100.52 4.4668C101.048 4.4668 101.504 4.55794 101.887 4.74023C102.274 4.92253 102.591 5.17773 102.837 5.50586C103.083 5.82943 103.265 6.21224 103.384 6.6543C103.502 7.0918 103.562 7.57031 103.562 8.08984V8.65723H98.0381V7.625H102.297V7.5293C102.279 7.20117 102.21 6.88216 102.092 6.57227C101.978 6.26237 101.796 6.00716 101.545 5.80664C101.294 5.60612 100.952 5.50586 100.52 5.50586C100.232 5.50586 99.9681 5.56738 99.7266 5.69043C99.485 5.80892 99.2777 5.98665 99.1045 6.22363C98.9313 6.46061 98.7969 6.75 98.7012 7.0918C98.6055 7.43359 98.5576 7.8278 98.5576 8.27441V8.56152C98.5576 8.91243 98.6055 9.24284 98.7012 9.55273C98.8014 9.85807 98.945 10.127 99.1318 10.3594C99.3232 10.5918 99.5534 10.7741 99.8223 10.9062C100.096 11.0384 100.406 11.1045 100.752 11.1045C101.199 11.1045 101.577 11.0133 101.887 10.8311C102.197 10.6488 102.468 10.4049 102.7 10.0996L103.466 10.708C103.306 10.9495 103.104 11.1797 102.857 11.3984C102.611 11.6172 102.308 11.7949 101.948 11.9316C101.593 12.0684 101.171 12.1367 100.684 12.1367ZM108.504 1.5H109.775V10.5645L109.666 12H108.504V1.5ZM114.772 8.24023V8.38379C114.772 8.92155 114.709 9.42057 114.581 9.88086C114.453 10.3366 114.267 10.7331 114.021 11.0703C113.774 11.4076 113.474 11.6696 113.118 11.8564C112.763 12.0433 112.355 12.1367 111.895 12.1367C111.425 12.1367 111.013 12.057 110.657 11.8975C110.306 11.7334 110.01 11.4987 109.769 11.1934C109.527 10.888 109.333 10.5189 109.188 10.0859C109.046 9.65299 108.948 9.16536 108.894 8.62305V7.99414C108.948 7.44727 109.046 6.95736 109.188 6.52441C109.333 6.09147 109.527 5.72233 109.769 5.41699C110.01 5.1071 110.306 4.8724 110.657 4.71289C111.008 4.54883 111.416 4.4668 111.881 4.4668C112.346 4.4668 112.758 4.55794 113.118 4.74023C113.478 4.91797 113.779 5.17318 114.021 5.50586C114.267 5.83854 114.453 6.2373 114.581 6.70215C114.709 7.16243 114.772 7.67513 114.772 8.24023ZM113.501 8.38379V8.24023C113.501 7.87109 113.467 7.52474 113.398 7.20117C113.33 6.87305 113.221 6.58594 113.07 6.33984C112.92 6.08919 112.722 5.89323 112.476 5.75195C112.229 5.60612 111.926 5.5332 111.566 5.5332C111.247 5.5332 110.969 5.58789 110.732 5.69727C110.5 5.80664 110.302 5.95475 110.138 6.1416C109.974 6.32389 109.839 6.53353 109.734 6.77051C109.634 7.00293 109.559 7.24447 109.509 7.49512V9.14258C109.582 9.46159 109.7 9.76921 109.864 10.0654C110.033 10.3571 110.256 10.5964 110.534 10.7832C110.817 10.9701 111.165 11.0635 111.58 11.0635C111.922 11.0635 112.214 10.9951 112.455 10.8584C112.701 10.7171 112.899 10.5234 113.05 10.2773C113.205 10.0312 113.319 9.74642 113.392 9.42285C113.465 9.09928 113.501 8.75293 113.501 8.38379ZM118.368 11.2344L120.426 4.60352H121.779L118.812 13.1416C118.744 13.3239 118.653 13.5199 118.539 13.7295C118.43 13.9437 118.288 14.1465 118.115 14.3379C117.942 14.5293 117.732 14.6842 117.486 14.8027C117.245 14.9258 116.955 14.9873 116.618 14.9873C116.518 14.9873 116.39 14.9736 116.235 14.9463C116.08 14.9189 115.971 14.8962 115.907 14.8779L115.9 13.8525C115.937 13.8571 115.994 13.8617 116.071 13.8662C116.153 13.8753 116.21 13.8799 116.242 13.8799C116.529 13.8799 116.773 13.8411 116.974 13.7637C117.174 13.6908 117.343 13.5654 117.479 13.3877C117.621 13.2145 117.742 12.9753 117.842 12.6699L118.368 11.2344ZM116.857 4.60352L118.778 10.3457L119.106 11.6787L118.197 12.1436L115.477 4.60352H116.857ZM122.866 11.3301C122.866 11.1159 122.932 10.9359 123.064 10.79C123.201 10.6396 123.397 10.5645 123.652 10.5645C123.908 10.5645 124.101 10.6396 124.233 10.79C124.37 10.9359 124.438 11.1159 124.438 11.3301C124.438 11.5397 124.37 11.7174 124.233 11.8633C124.101 12.0091 123.908 12.082 123.652 12.082C123.397 12.082 123.201 12.0091 123.064 11.8633C122.932 11.7174 122.866 11.5397 122.866 11.3301ZM122.873 5.29395C122.873 5.07975 122.939 4.89974 123.071 4.75391C123.208 4.60352 123.404 4.52832 123.659 4.52832C123.914 4.52832 124.108 4.60352 124.24 4.75391C124.377 4.89974 124.445 5.07975 124.445 5.29395C124.445 5.50358 124.377 5.68132 124.24 5.82715C124.108 5.97298 123.914 6.0459 123.659 6.0459C123.404 6.0459 123.208 5.97298 123.071 5.82715C122.939 5.68132 122.873 5.50358 122.873 5.29395Z" fill="#626A74"/>
<path d="M50.249 27.4365C50.249 27.2314 50.2171 27.0492 50.1533 26.8896C50.0941 26.7301 49.987 26.5843 49.8321 26.4521C49.6771 26.32 49.4584 26.1924 49.1758 26.0693C48.8978 25.9417 48.5423 25.8118 48.1094 25.6797C47.6354 25.5339 47.1979 25.3721 46.7969 25.1943C46.4004 25.012 46.0541 24.8024 45.7578 24.5654C45.4616 24.3239 45.2315 24.0482 45.0674 23.7383C44.9033 23.4238 44.8213 23.0615 44.8213 22.6514C44.8213 22.2458 44.9056 21.8766 45.0742 21.5439C45.2474 21.2113 45.4912 20.9242 45.8057 20.6826C46.1247 20.4365 46.5007 20.2474 46.9336 20.1152C47.3666 19.9785 47.8451 19.9102 48.3692 19.9102C49.1074 19.9102 49.7432 20.0469 50.2764 20.3203C50.8142 20.5938 51.2266 20.9606 51.5137 21.4209C51.8054 21.8812 51.9512 22.3893 51.9512 22.9453H50.249C50.249 22.6172 50.1784 22.3278 50.0371 22.0771C49.9004 21.8219 49.6908 21.6214 49.4082 21.4756C49.1302 21.3298 48.777 21.2568 48.3487 21.2568C47.9431 21.2568 47.6058 21.3184 47.3369 21.4414C47.0681 21.5645 46.8675 21.7308 46.7354 21.9404C46.6032 22.1501 46.5371 22.387 46.5371 22.6514C46.5371 22.8382 46.5804 23.0091 46.667 23.1641C46.7536 23.3145 46.8858 23.4557 47.0635 23.5879C47.2412 23.7155 47.4645 23.8363 47.7334 23.9502C48.0023 24.0641 48.319 24.1735 48.6836 24.2783C49.235 24.4424 49.7158 24.6247 50.126 24.8252C50.5362 25.0212 50.878 25.2445 51.1514 25.4951C51.4248 25.7458 51.6299 26.0306 51.7666 26.3496C51.9033 26.6641 51.9717 27.0218 51.9717 27.4229C51.9717 27.8421 51.8874 28.2204 51.7188 28.5576C51.5502 28.8903 51.3086 29.1751 50.9942 29.4121C50.6843 29.6445 50.3106 29.8245 49.8731 29.9521C49.4401 30.0752 48.9571 30.1367 48.4239 30.1367C47.9453 30.1367 47.4737 30.0729 47.0088 29.9453C46.5485 29.8177 46.1293 29.624 45.751 29.3643C45.3727 29.0999 45.072 28.7718 44.8487 28.3799C44.6253 27.9834 44.5137 27.5208 44.5137 26.9922H46.2295C46.2295 27.3158 46.2842 27.5915 46.3936 27.8193C46.5075 28.0472 46.6647 28.234 46.8653 28.3799C47.0658 28.5212 47.2982 28.626 47.5625 28.6943C47.8314 28.7627 48.1185 28.7969 48.4239 28.7969C48.8249 28.7969 49.1599 28.7399 49.4287 28.626C49.7022 28.512 49.9072 28.3525 50.044 28.1475C50.1807 27.9424 50.249 27.7054 50.249 27.4365ZM56.586 30.1367C56.0391 30.1367 55.5446 30.0479 55.1026 29.8701C54.6651 29.6878 54.2914 29.4349 53.9815 29.1113C53.6761 28.7878 53.4414 28.4072 53.2774 27.9697C53.1133 27.5322 53.0313 27.0605 53.0313 26.5547V26.2812C53.0313 25.7025 53.1156 25.1784 53.2842 24.709C53.4528 24.2396 53.6875 23.8385 53.9883 23.5059C54.2891 23.1686 54.6446 22.9111 55.0547 22.7334C55.4649 22.5557 55.9092 22.4668 56.3877 22.4668C56.9164 22.4668 57.3789 22.5557 57.7754 22.7334C58.1719 22.9111 58.5 23.1618 58.7598 23.4854C59.0241 23.8044 59.2201 24.1849 59.3477 24.627C59.4798 25.069 59.5459 25.5566 59.5459 26.0898V26.7939H53.8311V25.6113H57.919V25.4814C57.9099 25.1852 57.8506 24.9072 57.7412 24.6475C57.6364 24.3877 57.4746 24.1781 57.2559 24.0186C57.0371 23.859 56.7455 23.7793 56.3809 23.7793C56.1074 23.7793 55.8636 23.8385 55.6494 23.957C55.4398 24.071 55.2643 24.2373 55.1231 24.4561C54.9818 24.6748 54.8724 24.9391 54.7949 25.249C54.722 25.5544 54.6856 25.8984 54.6856 26.2812V26.5547C54.6856 26.8783 54.7289 27.179 54.8155 27.457C54.9066 27.7305 55.0388 27.9697 55.2119 28.1748C55.3851 28.3799 55.5948 28.5417 55.8408 28.6602C56.0869 28.7741 56.3672 28.8311 56.6817 28.8311C57.0781 28.8311 57.4313 28.7513 57.7412 28.5918C58.0511 28.4323 58.32 28.2067 58.5479 27.915L59.416 28.7559C59.2565 28.9883 59.0492 29.2116 58.794 29.4258C58.5388 29.6354 58.2266 29.8063 57.8574 29.9385C57.4929 30.0706 57.069 30.1367 56.586 30.1367ZM62.4854 24.0254V32.8438H60.8379V22.6035H62.3555L62.4854 24.0254ZM67.3047 26.2334V26.377C67.3047 26.9147 67.2409 27.4137 67.1133 27.874C66.9903 28.3298 66.8057 28.7285 66.5596 29.0703C66.3181 29.4076 66.0196 29.6696 65.6641 29.8564C65.3086 30.0433 64.8985 30.1367 64.4336 30.1367C63.9733 30.1367 63.57 30.0524 63.2237 29.8838C62.8819 29.7106 62.5925 29.4668 62.3555 29.1523C62.1185 28.8379 61.9271 28.4688 61.7813 28.0449C61.64 27.6165 61.5397 27.1471 61.4805 26.6367V26.083C61.5397 25.5407 61.64 25.0485 61.7813 24.6064C61.9271 24.1644 62.1185 23.7839 62.3555 23.4648C62.5925 23.1458 62.8819 22.8997 63.2237 22.7266C63.5655 22.5534 63.9642 22.4668 64.4199 22.4668C64.8848 22.4668 65.2972 22.5579 65.6572 22.7402C66.0173 22.918 66.3203 23.1732 66.5664 23.5059C66.8125 23.834 66.9971 24.2305 67.1201 24.6953C67.2432 25.1556 67.3047 25.6683 67.3047 26.2334ZM65.6572 26.377V26.2334C65.6572 25.8916 65.6253 25.5749 65.5615 25.2832C65.4977 24.987 65.3975 24.7272 65.2608 24.5039C65.124 24.2806 64.9486 24.1074 64.7344 23.9844C64.5248 23.8568 64.2718 23.793 63.9756 23.793C63.6839 23.793 63.4333 23.8431 63.2237 23.9434C63.014 24.0391 62.8386 24.1735 62.6973 24.3467C62.556 24.5199 62.4466 24.7227 62.3692 24.9551C62.2917 25.1829 62.237 25.4313 62.2051 25.7002V27.0264C62.2598 27.3545 62.3532 27.6553 62.4854 27.9287C62.6175 28.2021 62.8044 28.4209 63.0459 28.585C63.292 28.7445 63.6065 28.8242 63.9893 28.8242C64.2855 28.8242 64.5384 28.7604 64.7481 28.6328C64.9577 28.5052 65.1286 28.3298 65.2608 28.1064C65.3975 27.8786 65.4977 27.6165 65.5615 27.3203C65.6253 27.0241 65.6572 26.7096 65.6572 26.377ZM74.0313 24.2783H75.0156C75.3985 24.2783 75.7152 24.2122 75.9658 24.0801C76.2211 23.9479 76.4102 23.7656 76.5332 23.5332C76.6563 23.3008 76.7178 23.0342 76.7178 22.7334C76.7178 22.4189 76.6608 22.1501 76.5469 21.9268C76.4375 21.6989 76.2689 21.5234 76.041 21.4004C75.8177 21.2773 75.5329 21.2158 75.1865 21.2158C74.8949 21.2158 74.6306 21.2751 74.3936 21.3936C74.1612 21.5075 73.9766 21.6715 73.8399 21.8857C73.7031 22.0954 73.6348 22.346 73.6348 22.6377H71.9805C71.9805 22.109 72.1195 21.6396 72.3975 21.2295C72.6755 20.8193 73.0537 20.498 73.5322 20.2656C74.0153 20.0286 74.5576 19.9102 75.1592 19.9102C75.8018 19.9102 76.3623 20.0173 76.8408 20.2314C77.3239 20.4411 77.6999 20.7555 77.9688 21.1748C78.2377 21.5941 78.3721 22.1136 78.3721 22.7334C78.3721 23.016 78.306 23.3031 78.1739 23.5947C78.0417 23.8864 77.8457 24.153 77.586 24.3945C77.3262 24.6315 77.0026 24.8252 76.6153 24.9756C76.2279 25.1214 75.779 25.1943 75.2686 25.1943H74.0313V24.2783ZM74.0313 25.5635V24.6611H75.2686C75.8519 24.6611 76.3487 24.7295 76.7588 24.8662C77.1735 25.0029 77.5108 25.1921 77.7705 25.4336C78.0303 25.6706 78.2194 25.9417 78.3379 26.2471C78.461 26.5524 78.5225 26.876 78.5225 27.2178C78.5225 27.6826 78.4382 28.0973 78.2696 28.4619C78.1055 28.8219 77.8708 29.1273 77.5655 29.3779C77.2601 29.6286 76.9024 29.8177 76.4922 29.9453C76.0866 30.0729 75.6446 30.1367 75.166 30.1367C74.7377 30.1367 74.3275 30.0775 73.9356 29.959C73.5436 29.8405 73.1927 29.665 72.8828 29.4326C72.5729 29.1956 72.3268 28.9017 72.1446 28.5508C71.9668 28.1953 71.878 27.7852 71.878 27.3203H73.5254C73.5254 27.6165 73.5938 27.8786 73.7305 28.1064C73.8718 28.3298 74.0677 28.5052 74.3184 28.6328C74.5736 28.7604 74.8653 28.8242 75.1934 28.8242C75.5397 28.8242 75.8382 28.7627 76.0889 28.6396C76.3395 28.5166 76.5309 28.3343 76.6631 28.0928C76.7998 27.8512 76.8682 27.5596 76.8682 27.2178C76.8682 26.8304 76.793 26.516 76.6426 26.2744C76.4922 26.0329 76.278 25.8551 76 25.7412C75.722 25.6227 75.3939 25.5635 75.0156 25.5635H74.0313ZM86.541 24.1895V25.8164C86.541 26.5957 86.4636 27.2611 86.3086 27.8125C86.1582 28.3594 85.9395 28.8037 85.6524 29.1455C85.3653 29.4873 85.0212 29.738 84.6201 29.8975C84.2237 30.057 83.7793 30.1367 83.2871 30.1367C82.8952 30.1367 82.5306 30.0866 82.1934 29.9863C81.8607 29.8861 81.5599 29.7288 81.291 29.5146C81.0222 29.3005 80.792 29.0247 80.6006 28.6875C80.4138 28.3457 80.2679 27.9378 80.1631 27.4639C80.0628 26.9899 80.0127 26.4408 80.0127 25.8164V24.1895C80.0127 23.4056 80.0902 22.7448 80.2451 22.207C80.4001 21.6647 80.6211 21.2249 80.9082 20.8877C81.1953 20.5459 81.5371 20.2975 81.9336 20.1426C82.3347 19.9876 82.7813 19.9102 83.2735 19.9102C83.6699 19.9102 84.0345 19.9603 84.3672 20.0605C84.7045 20.1562 85.0052 20.3089 85.2696 20.5186C85.5384 20.7282 85.7663 21.0016 85.9531 21.3389C86.1446 21.6715 86.2904 22.0749 86.3906 22.5488C86.4909 23.0182 86.541 23.5651 86.541 24.1895ZM84.8936 26.0488V23.9434C84.8936 23.5469 84.8708 23.1982 84.8252 22.8975C84.7796 22.5921 84.7113 22.3346 84.6201 22.125C84.5336 21.9108 84.4242 21.7376 84.292 21.6055C84.1599 21.4688 84.0095 21.3708 83.8408 21.3115C83.6722 21.2477 83.4831 21.2158 83.2735 21.2158C83.0183 21.2158 82.7904 21.266 82.5899 21.3662C82.3893 21.4619 82.2207 21.6169 82.084 21.8311C81.9473 22.0452 81.8425 22.3278 81.7696 22.6787C81.7012 23.0251 81.667 23.4466 81.667 23.9434V26.0488C81.667 26.4499 81.6898 26.8031 81.7354 27.1084C81.7809 27.4137 81.8493 27.6758 81.9405 27.8945C82.0316 28.1087 82.141 28.2865 82.2686 28.4277C82.4007 28.5645 82.5511 28.6647 82.7198 28.7285C82.8929 28.7923 83.0821 28.8242 83.2871 28.8242C83.5469 28.8242 83.777 28.7741 83.9776 28.6738C84.1781 28.5736 84.3467 28.4141 84.4834 28.1953C84.6201 27.972 84.7227 27.6826 84.791 27.3271C84.8594 26.9717 84.8936 26.5456 84.8936 26.0488ZM89.6514 28.4141L89.6446 29.5898C89.6446 30.0547 89.5283 30.5332 89.2959 31.0254C89.0635 31.5176 88.7559 31.9232 88.3731 32.2422L87.4912 31.7295C87.6188 31.5244 87.735 31.3171 87.8399 31.1074C87.9447 30.8978 88.029 30.6745 88.0928 30.4375C88.1566 30.2005 88.1885 29.9385 88.1885 29.6514V28.4141H89.6514ZM101.3 28.6875V30H94.628V28.8721L97.8682 25.3379C98.2237 24.9368 98.5039 24.5905 98.709 24.2988C98.9141 24.0072 99.0576 23.7451 99.1397 23.5127C99.2263 23.2757 99.2696 23.0456 99.2696 22.8223C99.2696 22.5078 99.2103 22.2321 99.0918 21.9951C98.9779 21.7536 98.8093 21.5645 98.586 21.4277C98.3627 21.2865 98.0915 21.2158 97.7725 21.2158C97.4033 21.2158 97.0934 21.2956 96.8428 21.4551C96.5921 21.6146 96.403 21.8356 96.2754 22.1182C96.1478 22.3962 96.084 22.7152 96.084 23.0752H94.4365C94.4365 22.4964 94.5687 21.9678 94.833 21.4893C95.0974 21.0062 95.4802 20.6234 95.9815 20.3408C96.4828 20.0537 97.0866 19.9102 97.793 19.9102C98.4584 19.9102 99.0235 20.0218 99.4883 20.2451C99.9531 20.4684 100.306 20.7852 100.548 21.1953C100.794 21.6055 100.917 22.0908 100.917 22.6514C100.917 22.9613 100.867 23.2689 100.767 23.5742C100.666 23.8796 100.523 24.1849 100.336 24.4902C100.154 24.791 99.9372 25.0941 99.6865 25.3994C99.4359 25.7002 99.1602 26.0055 98.8594 26.3154L96.7061 28.6875H101.3ZM109.072 24.1895V25.8164C109.072 26.5957 108.995 27.2611 108.84 27.8125C108.689 28.3594 108.471 28.8037 108.184 29.1455C107.897 29.4873 107.552 29.738 107.151 29.8975C106.755 30.057 106.311 30.1367 105.818 30.1367C105.426 30.1367 105.062 30.0866 104.725 29.9863C104.392 29.8861 104.091 29.7288 103.822 29.5146C103.553 29.3005 103.323 29.0247 103.132 28.6875C102.945 28.3457 102.799 27.9378 102.694 27.4639C102.594 26.9899 102.544 26.4408 102.544 25.8164V24.1895C102.544 23.4056 102.621 22.7448 102.776 22.207C102.931 21.6647 103.152 21.2249 103.439 20.8877C103.727 20.5459 104.068 20.2975 104.465 20.1426C104.866 19.9876 105.313 19.9102 105.805 19.9102C106.201 19.9102 106.566 19.9603 106.898 20.0605C107.236 20.1562 107.536 20.3089 107.801 20.5186C108.07 20.7282 108.298 21.0016 108.484 21.3389C108.676 21.6715 108.822 22.0749 108.922 22.5488C109.022 23.0182 109.072 23.5651 109.072 24.1895ZM107.425 26.0488V23.9434C107.425 23.5469 107.402 23.1982 107.356 22.8975C107.311 22.5921 107.243 22.3346 107.151 22.125C107.065 21.9108 106.955 21.7376 106.823 21.6055C106.691 21.4688 106.541 21.3708 106.372 21.3115C106.203 21.2477 106.014 21.2158 105.805 21.2158C105.55 21.2158 105.322 21.266 105.121 21.3662C104.921 21.4619 104.752 21.6169 104.615 21.8311C104.479 22.0452 104.374 22.3278 104.301 22.6787C104.232 23.0251 104.198 23.4466 104.198 23.9434V26.0488C104.198 26.4499 104.221 26.8031 104.267 27.1084C104.312 27.4137 104.381 27.6758 104.472 27.8945C104.563 28.1087 104.672 28.2865 104.8 28.4277C104.932 28.5645 105.082 28.6647 105.251 28.7285C105.424 28.7923 105.613 28.8242 105.818 28.8242C106.078 28.8242 106.308 28.7741 106.509 28.6738C106.709 28.5736 106.878 28.4141 107.015 28.1953C107.151 27.972 107.254 27.6826 107.322 27.3271C107.391 26.9717 107.425 26.5456 107.425 26.0488ZM117.214 28.6875V30H110.542V28.8721L113.782 25.3379C114.138 24.9368 114.418 24.5905 114.623 24.2988C114.828 24.0072 114.972 23.7451 115.054 23.5127C115.14 23.2757 115.184 23.0456 115.184 22.8223C115.184 22.5078 115.124 22.2321 115.006 21.9951C114.892 21.7536 114.723 21.5645 114.5 21.4277C114.277 21.2865 114.006 21.2158 113.687 21.2158C113.317 21.2158 113.008 21.2956 112.757 21.4551C112.506 21.6146 112.317 21.8356 112.189 22.1182C112.062 22.3962 111.998 22.7152 111.998 23.0752H110.351C110.351 22.4964 110.483 21.9678 110.747 21.4893C111.011 21.0062 111.394 20.6234 111.896 20.3408C112.397 20.0537 113.001 19.9102 113.707 19.9102C114.372 19.9102 114.938 20.0218 115.402 20.2451C115.867 20.4684 116.22 20.7852 116.462 21.1953C116.708 21.6055 116.831 22.0908 116.831 22.6514C116.831 22.9613 116.781 23.2689 116.681 23.5742C116.58 23.8796 116.437 24.1849 116.25 24.4902C116.068 24.791 115.851 25.0941 115.601 25.3994C115.35 25.7002 115.074 26.0055 114.773 26.3154L112.62 28.6875H117.214ZM120.434 24.2783H121.418C121.801 24.2783 122.118 24.2122 122.368 24.0801C122.623 23.9479 122.813 23.7656 122.936 23.5332C123.059 23.3008 123.12 23.0342 123.12 22.7334C123.12 22.4189 123.063 22.1501 122.949 21.9268C122.84 21.6989 122.671 21.5234 122.443 21.4004C122.22 21.2773 121.935 21.2158 121.589 21.2158C121.297 21.2158 121.033 21.2751 120.796 21.3936C120.563 21.5075 120.379 21.6715 120.242 21.8857C120.105 22.0954 120.037 22.346 120.037 22.6377H118.383C118.383 22.109 118.522 21.6396 118.8 21.2295C119.078 20.8193 119.456 20.498 119.935 20.2656C120.418 20.0286 120.96 19.9102 121.562 19.9102C122.204 19.9102 122.765 20.0173 123.243 20.2314C123.726 20.4411 124.102 20.7555 124.371 21.1748C124.64 21.5941 124.774 22.1136 124.774 22.7334C124.774 23.016 124.708 23.3031 124.576 23.5947C124.444 23.8864 124.248 24.153 123.988 24.3945C123.729 24.6315 123.405 24.8252 123.018 24.9756C122.63 25.1214 122.181 25.1943 121.671 25.1943H120.434V24.2783ZM120.434 25.5635V24.6611H121.671C122.254 24.6611 122.751 24.7295 123.161 24.8662C123.576 25.0029 123.913 25.1921 124.173 25.4336C124.433 25.6706 124.622 25.9417 124.74 26.2471C124.863 26.5524 124.925 26.876 124.925 27.2178C124.925 27.6826 124.841 28.0973 124.672 28.4619C124.508 28.8219 124.273 29.1273 123.968 29.3779C123.662 29.6286 123.305 29.8177 122.895 29.9453C122.489 30.0729 122.047 30.1367 121.568 30.1367C121.14 30.1367 120.73 30.0775 120.338 29.959C119.946 29.8405 119.595 29.665 119.285 29.4326C118.975 29.1956 118.729 28.9017 118.547 28.5508C118.369 28.1953 118.28 27.7852 118.28 27.3203H119.928C119.928 27.6165 119.996 27.8786 120.133 28.1064C120.274 28.3298 120.47 28.5052 120.721 28.6328C120.976 28.7604 121.268 28.8242 121.596 28.8242C121.942 28.8242 122.241 28.7627 122.491 28.6396C122.742 28.5166 122.933 28.3343 123.065 28.0928C123.202 27.8512 123.271 27.5596 123.271 27.2178C123.271 26.8304 123.195 26.516 123.045 26.2744C122.895 26.0329 122.68 25.8551 122.402 25.7412C122.124 25.6227 121.796 25.5635 121.418 25.5635H120.434Z" fill="#626A74"/>
<path d="M270.611 10.5V21H268.957V10.5H270.611ZM275.677 21.1367C275.13 21.1367 274.635 21.0479 274.193 20.8701C273.756 20.6878 273.382 20.4349 273.072 20.1113C272.767 19.7878 272.532 19.4072 272.368 18.9697C272.204 18.5322 272.122 18.0605 272.122 17.5547V17.2812C272.122 16.7025 272.206 16.1784 272.375 15.709C272.544 15.2396 272.778 14.8385 273.079 14.5059C273.38 14.1686 273.735 13.9111 274.146 13.7334C274.556 13.5557 275 13.4668 275.479 13.4668C276.007 13.4668 276.47 13.5557 276.866 13.7334C277.263 13.9111 277.591 14.1618 277.851 14.4854C278.115 14.8044 278.311 15.1849 278.438 15.627C278.571 16.069 278.637 16.5566 278.637 17.0898V17.7939H272.922V16.6113H277.01V16.4814C277.001 16.1852 276.941 15.9072 276.832 15.6475C276.727 15.3877 276.565 15.1781 276.347 15.0186C276.128 14.859 275.836 14.7793 275.472 14.7793C275.198 14.7793 274.954 14.8385 274.74 14.957C274.531 15.071 274.355 15.2373 274.214 15.4561C274.073 15.6748 273.963 15.9391 273.886 16.249C273.813 16.5544 273.776 16.8984 273.776 17.2812V17.5547C273.776 17.8783 273.82 18.179 273.906 18.457C273.997 18.7305 274.13 18.9697 274.303 19.1748C274.476 19.3799 274.686 19.5417 274.932 19.6602C275.178 19.7741 275.458 19.8311 275.772 19.8311C276.169 19.8311 276.522 19.7513 276.832 19.5918C277.142 19.4323 277.411 19.2067 277.639 18.915L278.507 19.7559C278.347 19.9883 278.14 20.2116 277.885 20.4258C277.63 20.6354 277.317 20.8063 276.948 20.9385C276.584 21.0706 276.16 21.1367 275.677 21.1367ZM284.092 19.5166V15.9893C284.092 15.7249 284.044 15.4971 283.948 15.3057C283.853 15.1143 283.707 14.9661 283.511 14.8613C283.319 14.7565 283.078 14.7041 282.786 14.7041C282.517 14.7041 282.285 14.7497 282.089 14.8408C281.893 14.932 281.74 15.055 281.631 15.21C281.521 15.3649 281.467 15.5404 281.467 15.7363H279.826C279.826 15.4447 279.897 15.1621 280.038 14.8887C280.179 14.6152 280.384 14.3714 280.653 14.1572C280.922 13.943 281.243 13.7744 281.617 13.6514C281.991 13.5283 282.41 13.4668 282.875 13.4668C283.431 13.4668 283.923 13.5602 284.352 13.7471C284.785 13.9339 285.124 14.2165 285.37 14.5947C285.621 14.9684 285.746 15.4378 285.746 16.0029V19.291C285.746 19.6283 285.769 19.9313 285.814 20.2002C285.865 20.4645 285.935 20.6947 286.026 20.8906V21H284.338C284.26 20.8223 284.199 20.5967 284.153 20.3232C284.112 20.0452 284.092 19.7764 284.092 19.5166ZM284.331 16.502L284.345 17.5205H283.162C282.857 17.5205 282.588 17.5501 282.355 17.6094C282.123 17.6641 281.929 17.7461 281.774 17.8555C281.619 17.9648 281.503 18.097 281.426 18.252C281.348 18.4069 281.31 18.5824 281.31 18.7783C281.31 18.9743 281.355 19.1543 281.446 19.3184C281.537 19.4779 281.67 19.6032 281.843 19.6943C282.021 19.7855 282.235 19.8311 282.485 19.8311C282.823 19.8311 283.117 19.7627 283.367 19.626C283.622 19.4847 283.823 19.3138 283.969 19.1133C284.115 18.9082 284.192 18.7145 284.201 18.5322L284.734 19.2637C284.68 19.4505 284.586 19.651 284.454 19.8652C284.322 20.0794 284.149 20.2845 283.935 20.4805C283.725 20.6719 283.472 20.8291 283.176 20.9521C282.884 21.0752 282.547 21.1367 282.164 21.1367C281.681 21.1367 281.25 21.041 280.872 20.8496C280.494 20.6536 280.198 20.3916 279.983 20.0635C279.769 19.7308 279.662 19.3548 279.662 18.9355C279.662 18.5436 279.735 18.1973 279.881 17.8965C280.031 17.5911 280.25 17.3359 280.537 17.1309C280.829 16.9258 281.184 16.7708 281.604 16.666C282.023 16.5566 282.501 16.502 283.039 16.502H284.331ZM289.766 19.6943L291.577 13.6035H293.286L290.716 21H289.649L289.766 19.6943ZM288.378 13.6035L290.224 19.7217L290.312 21H289.246L286.662 13.6035H288.378ZM297.47 21.1367C296.923 21.1367 296.428 21.0479 295.986 20.8701C295.549 20.6878 295.175 20.4349 294.865 20.1113C294.56 19.7878 294.325 19.4072 294.161 18.9697C293.997 18.5322 293.915 18.0605 293.915 17.5547V17.2812C293.915 16.7025 293.999 16.1784 294.168 15.709C294.337 15.2396 294.571 14.8385 294.872 14.5059C295.173 14.1686 295.528 13.9111 295.938 13.7334C296.349 13.5557 296.793 13.4668 297.271 13.4668C297.8 13.4668 298.263 13.5557 298.659 13.7334C299.056 13.9111 299.384 14.1618 299.644 14.4854C299.908 14.8044 300.104 15.1849 300.231 15.627C300.364 16.069 300.43 16.5566 300.43 17.0898V17.7939H294.715V16.6113H298.803V16.4814C298.794 16.1852 298.734 15.9072 298.625 15.6475C298.52 15.3877 298.358 15.1781 298.14 15.0186C297.921 14.859 297.629 14.7793 297.265 14.7793C296.991 14.7793 296.747 14.8385 296.533 14.957C296.324 15.071 296.148 15.2373 296.007 15.4561C295.866 15.6748 295.756 15.9391 295.679 16.249C295.606 16.5544 295.569 16.8984 295.569 17.2812V17.5547C295.569 17.8783 295.613 18.179 295.699 18.457C295.79 18.7305 295.923 18.9697 296.096 19.1748C296.269 19.3799 296.479 19.5417 296.725 19.6602C296.971 19.7741 297.251 19.8311 297.565 19.8311C297.962 19.8311 298.315 19.7513 298.625 19.5918C298.935 19.4323 299.204 19.2067 299.432 18.915L300.3 19.7559C300.14 19.9883 299.933 20.2116 299.678 20.4258C299.423 20.6354 299.11 20.8063 298.741 20.9385C298.377 21.0706 297.953 21.1367 297.47 21.1367ZM306.855 15.0254V23.8438H305.208V13.6035H306.726L306.855 15.0254ZM311.675 17.2334V17.377C311.675 17.9147 311.611 18.4137 311.483 18.874C311.36 19.3298 311.176 19.7285 310.93 20.0703C310.688 20.4076 310.39 20.6696 310.034 20.8564C309.679 21.0433 309.269 21.1367 308.804 21.1367C308.343 21.1367 307.94 21.0524 307.594 20.8838C307.252 20.7106 306.963 20.4668 306.726 20.1523C306.489 19.8379 306.297 19.4688 306.151 19.0449C306.01 18.6165 305.91 18.1471 305.851 17.6367V17.083C305.91 16.5407 306.01 16.0485 306.151 15.6064C306.297 15.1644 306.489 14.7839 306.726 14.4648C306.963 14.1458 307.252 13.8997 307.594 13.7266C307.936 13.5534 308.334 13.4668 308.79 13.4668C309.255 13.4668 309.667 13.5579 310.027 13.7402C310.387 13.918 310.69 14.1732 310.937 14.5059C311.183 14.834 311.367 15.2305 311.49 15.6953C311.613 16.1556 311.675 16.6683 311.675 17.2334ZM310.027 17.377V17.2334C310.027 16.8916 309.995 16.5749 309.932 16.2832C309.868 15.987 309.768 15.7272 309.631 15.5039C309.494 15.2806 309.319 15.1074 309.104 14.9844C308.895 14.8568 308.642 14.793 308.346 14.793C308.054 14.793 307.803 14.8431 307.594 14.9434C307.384 15.0391 307.209 15.1735 307.067 15.3467C306.926 15.5199 306.817 15.7227 306.739 15.9551C306.662 16.1829 306.607 16.4313 306.575 16.7002V18.0264C306.63 18.3545 306.723 18.6553 306.855 18.9287C306.988 19.2021 307.174 19.4209 307.416 19.585C307.662 19.7445 307.977 19.8242 308.359 19.8242C308.656 19.8242 308.909 19.7604 309.118 19.6328C309.328 19.5052 309.499 19.3298 309.631 19.1064C309.768 18.8786 309.868 18.6165 309.932 18.3203C309.995 18.0241 310.027 17.7096 310.027 17.377ZM314.84 10.5V21H313.186V10.5H314.84ZM320.814 19.5166V15.9893C320.814 15.7249 320.767 15.4971 320.671 15.3057C320.575 15.1143 320.429 14.9661 320.233 14.8613C320.042 14.7565 319.8 14.7041 319.509 14.7041C319.24 14.7041 319.007 14.7497 318.812 14.8408C318.616 14.932 318.463 15.055 318.354 15.21C318.244 15.3649 318.189 15.5404 318.189 15.7363H316.549C316.549 15.4447 316.619 15.1621 316.761 14.8887C316.902 14.6152 317.107 14.3714 317.376 14.1572C317.645 13.943 317.966 13.7744 318.34 13.6514C318.714 13.5283 319.133 13.4668 319.598 13.4668C320.154 13.4668 320.646 13.5602 321.074 13.7471C321.507 13.9339 321.847 14.2165 322.093 14.5947C322.343 14.9684 322.469 15.4378 322.469 16.0029V19.291C322.469 19.6283 322.492 19.9313 322.537 20.2002C322.587 20.4645 322.658 20.6947 322.749 20.8906V21H321.061C320.983 20.8223 320.922 20.5967 320.876 20.3232C320.835 20.0452 320.814 19.7764 320.814 19.5166ZM321.054 16.502L321.067 17.5205H319.885C319.579 17.5205 319.311 17.5501 319.078 17.6094C318.846 17.6641 318.652 17.7461 318.497 17.8555C318.342 17.9648 318.226 18.097 318.148 18.252C318.071 18.4069 318.032 18.5824 318.032 18.7783C318.032 18.9743 318.078 19.1543 318.169 19.3184C318.26 19.4779 318.392 19.6032 318.565 19.6943C318.743 19.7855 318.957 19.8311 319.208 19.8311C319.545 19.8311 319.839 19.7627 320.09 19.626C320.345 19.4847 320.546 19.3138 320.691 19.1133C320.837 18.9082 320.915 18.7145 320.924 18.5322L321.457 19.2637C321.402 19.4505 321.309 19.651 321.177 19.8652C321.045 20.0794 320.871 20.2845 320.657 20.4805C320.448 20.6719 320.195 20.8291 319.898 20.9521C319.607 21.0752 319.27 21.1367 318.887 21.1367C318.404 21.1367 317.973 21.041 317.595 20.8496C317.216 20.6536 316.92 20.3916 316.706 20.0635C316.492 19.7308 316.385 19.3548 316.385 18.9355C316.385 18.5436 316.458 18.1973 316.604 17.8965C316.754 17.5911 316.973 17.3359 317.26 17.1309C317.551 16.9258 317.907 16.7708 318.326 16.666C318.745 16.5566 319.224 16.502 319.762 16.502H321.054ZM325.825 15.1826V21H324.178V13.6035H325.729L325.825 15.1826ZM325.531 17.0283L324.998 17.0215C325.003 16.4974 325.076 16.0166 325.217 15.5791C325.363 15.1416 325.563 14.7656 325.818 14.4512C326.078 14.1367 326.388 13.8952 326.748 13.7266C327.108 13.5534 327.509 13.4668 327.951 13.4668C328.307 13.4668 328.628 13.5169 328.915 13.6172C329.207 13.7129 329.455 13.8701 329.66 14.0889C329.87 14.3076 330.029 14.5924 330.139 14.9434C330.248 15.2897 330.303 15.7158 330.303 16.2217V21H328.648V16.2148C328.648 15.8594 328.596 15.5791 328.491 15.374C328.391 15.1644 328.243 15.0163 328.047 14.9297C327.855 14.8385 327.616 14.793 327.329 14.793C327.047 14.793 326.794 14.8522 326.57 14.9707C326.347 15.0892 326.158 15.251 326.003 15.4561C325.853 15.6611 325.736 15.8981 325.654 16.167C325.572 16.4359 325.531 16.723 325.531 17.0283ZM333.618 15.1826V21H331.971V13.6035H333.522L333.618 15.1826ZM333.324 17.0283L332.791 17.0215C332.796 16.4974 332.868 16.0166 333.01 15.5791C333.156 15.1416 333.356 14.7656 333.611 14.4512C333.871 14.1367 334.181 13.8952 334.541 13.7266C334.901 13.5534 335.302 13.4668 335.744 13.4668C336.1 13.4668 336.421 13.5169 336.708 13.6172C337 13.7129 337.248 13.8701 337.453 14.0889C337.663 14.3076 337.822 14.5924 337.932 14.9434C338.041 15.2897 338.096 15.7158 338.096 16.2217V21H336.441V16.2148C336.441 15.8594 336.389 15.5791 336.284 15.374C336.184 15.1644 336.036 15.0163 335.84 14.9297C335.648 14.8385 335.409 14.793 335.122 14.793C334.84 14.793 334.587 14.8522 334.363 14.9707C334.14 15.0892 333.951 15.251 333.796 15.4561C333.646 15.6611 333.529 15.8981 333.447 16.167C333.365 16.4359 333.324 16.723 333.324 17.0283ZM341.541 13.6035V21H339.887V13.6035H341.541ZM339.777 11.6621C339.777 11.4115 339.859 11.2041 340.023 11.04C340.192 10.8714 340.424 10.7871 340.721 10.7871C341.012 10.7871 341.243 10.8714 341.411 11.04C341.58 11.2041 341.664 11.4115 341.664 11.6621C341.664 11.9082 341.58 12.1133 341.411 12.2773C341.243 12.4414 341.012 12.5234 340.721 12.5234C340.424 12.5234 340.192 12.4414 340.023 12.2773C339.859 12.1133 339.777 11.9082 339.777 11.6621ZM344.979 15.1826V21H343.332V13.6035H344.884L344.979 15.1826ZM344.686 17.0283L344.152 17.0215C344.157 16.4974 344.23 16.0166 344.371 15.5791C344.517 15.1416 344.717 14.7656 344.973 14.4512C345.232 14.1367 345.542 13.8952 345.902 13.7266C346.262 13.5534 346.663 13.4668 347.105 13.4668C347.461 13.4668 347.782 13.5169 348.069 13.6172C348.361 13.7129 348.609 13.8701 348.814 14.0889C349.024 14.3076 349.184 14.5924 349.293 14.9434C349.402 15.2897 349.457 15.7158 349.457 16.2217V21H347.803V16.2148C347.803 15.8594 347.75 15.5791 347.646 15.374C347.545 15.1644 347.397 15.0163 347.201 14.9297C347.01 14.8385 346.771 14.793 346.483 14.793C346.201 14.793 345.948 14.8522 345.725 14.9707C345.501 15.0892 345.312 15.251 345.157 15.4561C345.007 15.6611 344.891 15.8981 344.809 16.167C344.727 16.4359 344.686 16.723 344.686 17.0283ZM355.876 13.6035H357.373V20.7949C357.373 21.4603 357.232 22.0254 356.949 22.4902C356.667 22.9551 356.272 23.3083 355.767 23.5498C355.261 23.7959 354.675 23.9189 354.01 23.9189C353.727 23.9189 353.413 23.8779 353.066 23.7959C352.725 23.7139 352.392 23.5817 352.068 23.3994C351.749 23.2217 351.483 22.987 351.269 22.6953L352.041 21.7246C352.305 22.0391 352.597 22.2692 352.916 22.415C353.235 22.5609 353.57 22.6338 353.921 22.6338C354.299 22.6338 354.62 22.5632 354.885 22.4219C355.154 22.2852 355.361 22.0824 355.507 21.8135C355.653 21.5446 355.726 21.2165 355.726 20.8291V15.2783L355.876 13.6035ZM350.852 17.3838V17.2402C350.852 16.6797 350.92 16.1693 351.057 15.709C351.193 15.2441 351.389 14.8454 351.645 14.5127C351.9 14.1755 352.21 13.918 352.574 13.7402C352.939 13.5579 353.351 13.4668 353.812 13.4668C354.29 13.4668 354.698 13.5534 355.035 13.7266C355.377 13.8997 355.662 14.1481 355.89 14.4717C356.118 14.7907 356.295 15.1735 356.423 15.6201C356.555 16.0622 356.653 16.5544 356.717 17.0967V17.5547C356.658 18.0833 356.557 18.5664 356.416 19.0039C356.275 19.4414 356.088 19.8197 355.855 20.1387C355.623 20.4577 355.336 20.7038 354.994 20.877C354.657 21.0501 354.258 21.1367 353.798 21.1367C353.347 21.1367 352.939 21.0433 352.574 20.8564C352.214 20.6696 351.904 20.4076 351.645 20.0703C351.389 19.7331 351.193 19.3366 351.057 18.8809C350.92 18.4206 350.852 17.9215 350.852 17.3838ZM352.499 17.2402V17.3838C352.499 17.721 352.531 18.0355 352.595 18.3271C352.663 18.6188 352.766 18.8763 352.902 19.0996C353.044 19.3184 353.221 19.4915 353.436 19.6191C353.654 19.7422 353.912 19.8037 354.208 19.8037C354.595 19.8037 354.912 19.7217 355.158 19.5576C355.409 19.3936 355.6 19.1725 355.732 18.8945C355.869 18.612 355.965 18.2975 356.02 17.9512V16.7139C355.992 16.445 355.935 16.1943 355.849 15.9619C355.767 15.7295 355.655 15.5267 355.514 15.3535C355.372 15.1758 355.195 15.0391 354.98 14.9434C354.766 14.8431 354.513 14.793 354.222 14.793C353.925 14.793 353.668 14.8568 353.449 14.9844C353.23 15.112 353.05 15.2874 352.909 15.5107C352.772 15.734 352.67 15.9938 352.602 16.29C352.533 16.5863 352.499 16.903 352.499 17.2402Z" fill="#626A74"/>
</g>
</g>
<defs>
<clipPath id="clip0_3795_39569">
<rect width="375" height="32" fill="white"/>
</clipPath>
</defs>
</svg>
