<svg width="375" height="48" viewBox="0 0 375 48" fill="none" xmlns="http://www.w3.org/2000/svg">
<g clip-path="url(#clip0_3794_55242)">
<g filter="url(#filter0_d_3794_55242)">
<path d="M22.4307 23.022L18.4527 27L22.4307 30.9781L21.2 32.2001L16 27L21.2 21.8L22.4307 23.022Z" fill="#1C6FF7"/>
<path d="M39.1337 27.3447H36.6113L36.5976 26.2852H38.8876C39.2659 26.2852 39.5963 26.2214 39.8788 26.0938C40.1614 25.9661 40.3801 25.7839 40.5351 25.5469C40.6946 25.3053 40.7743 25.0182 40.7743 24.6855C40.7743 24.321 40.7037 24.0247 40.5624 23.7969C40.4257 23.5645 40.2138 23.3958 39.9267 23.291C39.6441 23.1816 39.2841 23.127 38.8466 23.127H36.9052V32H35.5859V22.0469H38.8466C39.357 22.0469 39.8127 22.0993 40.2138 22.2041C40.6148 22.3044 40.9544 22.4639 41.2323 22.6826C41.5149 22.8968 41.7291 23.1702 41.8749 23.5029C42.0208 23.8356 42.0937 24.2344 42.0937 24.6992C42.0937 25.1094 41.9889 25.4808 41.7792 25.8135C41.5696 26.1416 41.2779 26.4105 40.9042 26.6201C40.5351 26.8298 40.1021 26.9642 39.6054 27.0234L39.1337 27.3447ZM39.0722 32H36.0917L36.8368 30.9268H39.0722C39.4915 30.9268 39.8469 30.8538 40.1386 30.708C40.4348 30.5622 40.6604 30.3571 40.8154 30.0928C40.9703 29.8239 41.0478 29.5072 41.0478 29.1426C41.0478 28.7734 40.9817 28.4544 40.8495 28.1855C40.7174 27.9167 40.51 27.7093 40.2275 27.5635C39.9449 27.4176 39.5803 27.3447 39.1337 27.3447H37.2538L37.2675 26.2852H39.8378L40.1181 26.668C40.5966 26.709 41.0022 26.8457 41.3349 27.0781C41.6676 27.306 41.9205 27.5977 42.0937 27.9531C42.2714 28.3086 42.3603 28.7005 42.3603 29.1289C42.3603 29.7487 42.2236 30.2728 41.9501 30.7012C41.6812 31.125 41.3007 31.4486 40.8085 31.6719C40.3163 31.8906 39.7376 32 39.0722 32ZM48.4784 30.7354V26.9277C48.4784 26.6361 48.4192 26.3831 48.3007 26.1689C48.1868 25.9502 48.0136 25.7816 47.7812 25.6631C47.5488 25.5446 47.2616 25.4854 46.9198 25.4854C46.6008 25.4854 46.3206 25.54 46.079 25.6494C45.842 25.7588 45.6552 25.9023 45.5185 26.0801C45.3863 26.2578 45.3202 26.4492 45.3202 26.6543H44.0556C44.0556 26.39 44.1239 26.1279 44.2607 25.8682C44.3974 25.6084 44.5933 25.3737 44.8486 25.1641C45.1083 24.9499 45.4182 24.7812 45.7782 24.6582C46.1428 24.5306 46.5484 24.4668 46.995 24.4668C47.5328 24.4668 48.0068 24.5579 48.4169 24.7402C48.8316 24.9225 49.1552 25.1982 49.3876 25.5674C49.6246 25.932 49.7431 26.39 49.7431 26.9414V30.3867C49.7431 30.6328 49.7636 30.8949 49.8046 31.1729C49.8502 31.4508 49.9163 31.6901 50.0029 31.8906V32H48.6835C48.6197 31.8542 48.5696 31.6605 48.5331 31.4189C48.4967 31.1729 48.4784 30.945 48.4784 30.7354ZM48.6972 27.5156L48.7109 28.4043H47.4325C47.0725 28.4043 46.7512 28.4339 46.4687 28.4932C46.1861 28.5479 45.9491 28.6322 45.7577 28.7461C45.5663 28.86 45.4205 29.0036 45.3202 29.1768C45.22 29.3454 45.1698 29.5436 45.1698 29.7715C45.1698 30.0039 45.2223 30.2158 45.3271 30.4072C45.4319 30.5986 45.5891 30.7513 45.7988 30.8652C46.0129 30.9746 46.275 31.0293 46.5849 31.0293C46.9723 31.0293 47.3141 30.9473 47.6103 30.7832C47.9065 30.6191 48.1412 30.4186 48.3144 30.1816C48.4921 29.9447 48.5878 29.7145 48.6015 29.4912L49.1415 30.0996C49.1096 30.291 49.023 30.5029 48.8818 30.7354C48.7405 30.9678 48.5514 31.1911 48.3144 31.4053C48.082 31.6149 47.804 31.7904 47.4804 31.9316C47.1614 32.0684 46.8014 32.1367 46.4003 32.1367C45.899 32.1367 45.4592 32.0387 45.081 31.8428C44.7073 31.6468 44.4156 31.3848 44.206 31.0566C44.0009 30.724 43.8984 30.3525 43.8984 29.9424C43.8984 29.5459 43.9758 29.1973 44.1308 28.8965C44.2857 28.5911 44.509 28.3382 44.8007 28.1377C45.0924 27.9326 45.4433 27.7777 45.8534 27.6729C46.2636 27.568 46.7216 27.5156 47.2275 27.5156H48.6972ZM54.6923 31.0977C54.9931 31.0977 55.2711 31.0361 55.5263 30.9131C55.7815 30.79 55.9911 30.6214 56.1552 30.4072C56.3193 30.1885 56.4127 29.9401 56.4355 29.6621H57.6386C57.6158 30.0996 57.4677 30.5075 57.1943 30.8857C56.9254 31.2594 56.5722 31.5625 56.1347 31.7949C55.6972 32.0228 55.2164 32.1367 54.6923 32.1367C54.1363 32.1367 53.651 32.0387 53.2363 31.8428C52.8261 31.6468 52.4843 31.3779 52.2109 31.0361C51.942 30.6943 51.7392 30.3024 51.6025 29.8604C51.4703 29.4137 51.4042 28.9421 51.4042 28.4453V28.1582C51.4042 27.6615 51.4703 27.1921 51.6025 26.75C51.7392 26.3034 51.942 25.9092 52.2109 25.5674C52.4843 25.2256 52.8261 24.9567 53.2363 24.7607C53.651 24.5648 54.1363 24.4668 54.6923 24.4668C55.2711 24.4668 55.7769 24.5853 56.2099 24.8223C56.6428 25.0547 56.9823 25.3737 57.2284 25.7793C57.4791 26.1803 57.6158 26.6361 57.6386 27.1465H56.4355C56.4127 26.8411 56.3261 26.5654 56.1757 26.3193C56.0299 26.0732 55.8294 25.8773 55.5741 25.7314C55.3235 25.5811 55.0295 25.5059 54.6923 25.5059C54.3049 25.5059 53.9791 25.5833 53.7148 25.7383C53.455 25.8887 53.2476 26.0938 53.0927 26.3535C52.9423 26.6087 52.8329 26.8936 52.7646 27.208C52.7008 27.5179 52.6689 27.8346 52.6689 28.1582V28.4453C52.6689 28.7689 52.7008 29.0879 52.7646 29.4023C52.8284 29.7168 52.9355 30.0016 53.0859 30.2568C53.2408 30.512 53.4482 30.7171 53.7079 30.8721C53.9723 31.0225 54.3004 31.0977 54.6923 31.0977ZM60.332 21.5V32H59.0605V21.5H60.332ZM64.8505 24.6035L61.6239 28.0557L59.8193 29.9287L59.7167 28.582L61.0087 27.0371L63.3056 24.6035H64.8505ZM63.6952 32L61.0566 28.4727L61.7128 27.3447L65.1855 32H63.6952Z" fill="#1C6FF7"/>
<path d="M202.571 22.0469H203.85L207.11 30.1611L210.364 22.0469H211.649L207.603 32H206.604L202.571 22.0469ZM202.154 22.0469H203.282L203.467 28.1172V32H202.154V22.0469ZM210.932 22.0469H212.06V32H210.747V28.1172L210.932 22.0469ZM218.547 30.7354V26.9277C218.547 26.6361 218.488 26.3831 218.369 26.1689C218.255 25.9502 218.082 25.7816 217.85 25.6631C217.617 25.5446 217.33 25.4854 216.988 25.4854C216.669 25.4854 216.389 25.54 216.147 25.6494C215.91 25.7588 215.724 25.9023 215.587 26.0801C215.455 26.2578 215.389 26.4492 215.389 26.6543H214.124C214.124 26.39 214.192 26.1279 214.329 25.8682C214.466 25.6084 214.662 25.3737 214.917 25.1641C215.177 24.9499 215.487 24.7812 215.847 24.6582C216.211 24.5306 216.617 24.4668 217.063 24.4668C217.601 24.4668 218.075 24.5579 218.485 24.7402C218.9 24.9225 219.224 25.1982 219.456 25.5674C219.693 25.932 219.811 26.39 219.811 26.9414V30.3867C219.811 30.6328 219.832 30.8949 219.873 31.1729C219.919 31.4508 219.985 31.6901 220.071 31.8906V32H218.752C218.688 31.8542 218.638 31.6605 218.602 31.4189C218.565 31.1729 218.547 30.945 218.547 30.7354ZM218.766 27.5156L218.779 28.4043H217.501C217.141 28.4043 216.82 28.4339 216.537 28.4932C216.255 28.5479 216.018 28.6322 215.826 28.7461C215.635 28.86 215.489 29.0036 215.389 29.1768C215.288 29.3454 215.238 29.5436 215.238 29.7715C215.238 30.0039 215.291 30.2158 215.395 30.4072C215.5 30.5986 215.658 30.7513 215.867 30.8652C216.081 30.9746 216.343 31.0293 216.653 31.0293C217.041 31.0293 217.382 30.9473 217.679 30.7832C217.975 30.6191 218.21 30.4186 218.383 30.1816C218.561 29.9447 218.656 29.7145 218.67 29.4912L219.21 30.0996C219.178 30.291 219.091 30.5029 218.95 30.7354C218.809 30.9678 218.62 31.1911 218.383 31.4053C218.15 31.6149 217.872 31.7904 217.549 31.9316C217.23 32.0684 216.87 32.1367 216.469 32.1367C215.967 32.1367 215.528 32.0387 215.149 31.8428C214.776 31.6468 214.484 31.3848 214.274 31.0566C214.069 30.724 213.967 30.3525 213.967 29.9424C213.967 29.5459 214.044 29.1973 214.199 28.8965C214.354 28.5911 214.577 28.3382 214.869 28.1377C215.161 27.9326 215.512 27.7777 215.922 27.6729C216.332 27.568 216.79 27.5156 217.296 27.5156H218.766ZM223.065 25.7656V32H221.801V24.6035H223.031L223.065 25.7656ZM225.376 24.5625L225.369 25.7383C225.264 25.7155 225.164 25.7018 225.068 25.6973C224.977 25.6882 224.872 25.6836 224.754 25.6836C224.462 25.6836 224.205 25.7292 223.981 25.8203C223.758 25.9115 223.569 26.0391 223.414 26.2031C223.259 26.3672 223.136 26.5632 223.045 26.791C222.958 27.0143 222.901 27.2604 222.874 27.5293L222.519 27.7344C222.519 27.2878 222.562 26.8685 222.648 26.4766C222.74 26.0846 222.879 25.7383 223.065 25.4375C223.252 25.1322 223.489 24.8952 223.776 24.7266C224.068 24.5534 224.414 24.4668 224.815 24.4668C224.907 24.4668 225.011 24.4782 225.13 24.501C225.248 24.5192 225.33 24.5397 225.376 24.5625ZM227.816 21.5V32H226.545V21.5H227.816ZM232.335 24.6035L229.108 28.0557L227.304 29.9287L227.201 28.582L228.493 27.0371L230.79 24.6035H232.335ZM231.18 32L228.541 28.4727L229.197 27.3447L232.67 32H231.18ZM241.475 30.7354V26.9277C241.475 26.6361 241.415 26.3831 241.297 26.1689C241.183 25.9502 241.01 25.7816 240.777 25.6631C240.545 25.5446 240.258 25.4854 239.916 25.4854C239.597 25.4854 239.317 25.54 239.075 25.6494C238.838 25.7588 238.651 25.9023 238.515 26.0801C238.382 26.2578 238.316 26.4492 238.316 26.6543H237.052C237.052 26.39 237.12 26.1279 237.257 25.8682C237.394 25.6084 237.589 25.3737 237.845 25.1641C238.104 24.9499 238.414 24.7812 238.774 24.6582C239.139 24.5306 239.545 24.4668 239.991 24.4668C240.529 24.4668 241.003 24.5579 241.413 24.7402C241.828 24.9225 242.151 25.1982 242.384 25.5674C242.621 25.932 242.739 26.39 242.739 26.9414V30.3867C242.739 30.6328 242.76 30.8949 242.801 31.1729C242.846 31.4508 242.912 31.6901 242.999 31.8906V32H241.68C241.616 31.8542 241.566 31.6605 241.529 31.4189C241.493 31.1729 241.475 30.945 241.475 30.7354ZM241.693 27.5156L241.707 28.4043H240.429C240.069 28.4043 239.747 28.4339 239.465 28.4932C239.182 28.5479 238.945 28.6322 238.754 28.7461C238.562 28.86 238.417 29.0036 238.316 29.1768C238.216 29.3454 238.166 29.5436 238.166 29.7715C238.166 30.0039 238.218 30.2158 238.323 30.4072C238.428 30.5986 238.585 30.7513 238.795 30.8652C239.009 30.9746 239.271 31.0293 239.581 31.0293C239.968 31.0293 240.31 30.9473 240.606 30.7832C240.903 30.6191 241.137 30.4186 241.311 30.1816C241.488 29.9447 241.584 29.7145 241.598 29.4912L242.138 30.0996C242.106 30.291 242.019 30.5029 241.878 30.7354C241.737 30.9678 241.548 31.1911 241.311 31.4053C241.078 31.6149 240.8 31.7904 240.477 31.9316C240.158 32.0684 239.798 32.1367 239.396 32.1367C238.895 32.1367 238.455 32.0387 238.077 31.8428C237.703 31.6468 237.412 31.3848 237.202 31.0566C236.997 30.724 236.895 30.3525 236.895 29.9424C236.895 29.5459 236.972 29.1973 237.127 28.8965C237.282 28.5911 237.505 28.3382 237.797 28.1377C238.089 27.9326 238.439 27.7777 238.85 27.6729C239.26 27.568 239.718 27.5156 240.224 27.5156H241.693ZM249.035 30.0381C249.035 29.8558 248.994 29.6872 248.912 29.5322C248.835 29.3727 248.673 29.2292 248.427 29.1016C248.185 28.9694 247.821 28.8555 247.333 28.7598C246.923 28.6732 246.551 28.5706 246.219 28.4521C245.891 28.3337 245.61 28.1901 245.378 28.0215C245.15 27.8529 244.975 27.6546 244.852 27.4268C244.728 27.1989 244.667 26.9323 244.667 26.627C244.667 26.3353 244.731 26.0596 244.858 25.7998C244.991 25.54 245.175 25.3099 245.412 25.1094C245.654 24.9089 245.943 24.7516 246.28 24.6377C246.617 24.5238 246.993 24.4668 247.408 24.4668C248.001 24.4668 248.506 24.5716 248.926 24.7812C249.345 24.9909 249.666 25.2712 249.89 25.6221C250.113 25.9684 250.225 26.3535 250.225 26.7773H248.96C248.96 26.5723 248.898 26.374 248.775 26.1826C248.657 25.9867 248.481 25.8249 248.249 25.6973C248.021 25.5697 247.741 25.5059 247.408 25.5059C247.057 25.5059 246.772 25.5605 246.554 25.6699C246.339 25.7747 246.182 25.9092 246.082 26.0732C245.986 26.2373 245.938 26.4105 245.938 26.5928C245.938 26.7295 245.961 26.8525 246.007 26.9619C246.057 27.0667 246.144 27.1647 246.267 27.2559C246.39 27.3424 246.563 27.4245 246.786 27.502C247.009 27.5794 247.294 27.6569 247.641 27.7344C248.247 27.8711 248.746 28.0352 249.138 28.2266C249.53 28.418 249.821 28.6527 250.013 28.9307C250.204 29.2087 250.3 29.5459 250.3 29.9424C250.3 30.266 250.231 30.5622 250.095 30.8311C249.963 31.0999 249.769 31.3324 249.514 31.5283C249.263 31.7197 248.962 31.8701 248.611 31.9795C248.265 32.0843 247.875 32.1367 247.442 32.1367C246.791 32.1367 246.239 32.0205 245.788 31.7881C245.337 31.5557 244.995 31.2549 244.763 30.8857C244.53 30.5166 244.414 30.127 244.414 29.7168H245.686C245.704 30.0632 245.804 30.3389 245.986 30.5439C246.169 30.7445 246.392 30.888 246.656 30.9746C246.921 31.0566 247.183 31.0977 247.442 31.0977C247.789 31.0977 248.078 31.0521 248.311 30.9609C248.548 30.8698 248.728 30.7445 248.851 30.585C248.974 30.4255 249.035 30.2432 249.035 30.0381ZM261.634 28.835H262.946C262.878 29.4639 262.698 30.0267 262.406 30.5234C262.115 31.0202 261.702 31.4144 261.169 31.7061C260.636 31.9932 259.97 32.1367 259.173 32.1367C258.589 32.1367 258.059 32.0273 257.58 31.8086C257.106 31.5898 256.698 31.2799 256.356 30.8789C256.015 30.4733 255.75 29.988 255.563 29.4229C255.381 28.8532 255.29 28.2197 255.29 27.5225V26.5312C255.29 25.834 255.381 25.2028 255.563 24.6377C255.75 24.068 256.017 23.5804 256.363 23.1748C256.714 22.7692 257.136 22.457 257.628 22.2383C258.12 22.0195 258.674 21.9102 259.289 21.9102C260.041 21.9102 260.677 22.0514 261.196 22.334C261.716 22.6165 262.119 23.0085 262.406 23.5098C262.698 24.0065 262.878 24.583 262.946 25.2393H261.634C261.57 24.7744 261.451 24.3757 261.278 24.043C261.105 23.7057 260.859 23.446 260.54 23.2637C260.221 23.0814 259.804 22.9902 259.289 22.9902C258.847 22.9902 258.457 23.0745 258.12 23.2432C257.787 23.4118 257.507 23.651 257.279 23.9609C257.056 24.2708 256.887 24.6423 256.773 25.0752C256.659 25.5081 256.603 25.9889 256.603 26.5176V27.5225C256.603 28.0101 256.653 28.4681 256.753 28.8965C256.858 29.3249 257.015 29.7008 257.225 30.0244C257.434 30.348 257.701 30.6032 258.024 30.79C258.348 30.9723 258.731 31.0635 259.173 31.0635C259.733 31.0635 260.18 30.9746 260.513 30.7969C260.845 30.6191 261.096 30.3639 261.265 30.0312C261.438 29.6986 261.561 29.2998 261.634 28.835ZM264.218 28.3838V28.2266C264.218 27.6934 264.295 27.1989 264.45 26.7432C264.605 26.2829 264.828 25.8841 265.12 25.5469C265.412 25.2051 265.765 24.9408 266.18 24.7539C266.594 24.5625 267.059 24.4668 267.574 24.4668C268.094 24.4668 268.561 24.5625 268.976 24.7539C269.395 24.9408 269.75 25.2051 270.042 25.5469C270.338 25.8841 270.564 26.2829 270.719 26.7432C270.874 27.1989 270.951 27.6934 270.951 28.2266V28.3838C270.951 28.917 270.874 29.4115 270.719 29.8672C270.564 30.3229 270.338 30.7217 270.042 31.0635C269.75 31.4007 269.397 31.665 268.982 31.8564C268.572 32.0433 268.107 32.1367 267.588 32.1367C267.068 32.1367 266.601 32.0433 266.187 31.8564C265.772 31.665 265.416 31.4007 265.12 31.0635C264.828 30.7217 264.605 30.3229 264.45 29.8672C264.295 29.4115 264.218 28.917 264.218 28.3838ZM265.482 28.2266V28.3838C265.482 28.7529 265.526 29.1016 265.612 29.4297C265.699 29.7533 265.829 30.0404 266.002 30.291C266.18 30.5417 266.401 30.7399 266.665 30.8857C266.929 31.027 267.237 31.0977 267.588 31.0977C267.934 31.0977 268.237 31.027 268.497 30.8857C268.761 30.7399 268.98 30.5417 269.153 30.291C269.326 30.0404 269.456 29.7533 269.543 29.4297C269.634 29.1016 269.68 28.7529 269.68 28.3838V28.2266C269.68 27.862 269.634 27.5179 269.543 27.1943C269.456 26.8662 269.324 26.5768 269.146 26.3262C268.973 26.071 268.755 25.8704 268.49 25.7246C268.23 25.5788 267.925 25.5059 267.574 25.5059C267.228 25.5059 266.923 25.5788 266.658 25.7246C266.398 25.8704 266.18 26.071 266.002 26.3262C265.829 26.5768 265.699 26.8662 265.612 27.1943C265.526 27.5179 265.482 27.862 265.482 28.2266ZM273.795 26.0732V32H272.523V24.6035H273.727L273.795 26.0732ZM273.535 28.0215L272.947 28.001C272.952 27.4951 273.018 27.028 273.145 26.5996C273.273 26.1667 273.462 25.7907 273.713 25.4717C273.964 25.1527 274.276 24.9066 274.649 24.7334C275.023 24.5557 275.456 24.4668 275.948 24.4668C276.295 24.4668 276.614 24.5169 276.905 24.6172C277.197 24.7129 277.45 24.8656 277.664 25.0752C277.878 25.2848 278.045 25.5537 278.163 25.8818C278.282 26.21 278.341 26.6064 278.341 27.0713V32H277.076V27.1328C277.076 26.7454 277.01 26.4355 276.878 26.2031C276.75 25.9707 276.568 25.8021 276.331 25.6973C276.094 25.5879 275.816 25.5332 275.497 25.5332C275.123 25.5332 274.811 25.5993 274.561 25.7314C274.31 25.8636 274.109 26.0459 273.959 26.2783C273.809 26.5107 273.699 26.7773 273.631 27.0781C273.567 27.3743 273.535 27.6888 273.535 28.0215ZM278.327 27.3242L277.479 27.584C277.484 27.1784 277.55 26.7887 277.678 26.415C277.81 26.0413 277.999 25.7087 278.245 25.417C278.496 25.1253 278.803 24.8952 279.168 24.7266C279.533 24.5534 279.95 24.4668 280.419 24.4668C280.815 24.4668 281.166 24.5192 281.472 24.624C281.782 24.7288 282.041 24.8906 282.251 25.1094C282.465 25.3236 282.627 25.5993 282.736 25.9365C282.846 26.2738 282.9 26.6748 282.9 27.1396V32H281.629V27.126C281.629 26.7113 281.563 26.39 281.431 26.1621C281.303 25.9297 281.121 25.7679 280.884 25.6768C280.651 25.5811 280.373 25.5332 280.05 25.5332C279.772 25.5332 279.526 25.5811 279.311 25.6768C279.097 25.7725 278.917 25.9046 278.771 26.0732C278.626 26.2373 278.514 26.4264 278.437 26.6406C278.364 26.8548 278.327 27.0827 278.327 27.3242ZM286.079 26.0254V34.8438H284.808V24.6035H285.97L286.079 26.0254ZM291.062 28.2402V28.3838C291.062 28.9215 290.999 29.4206 290.871 29.8809C290.743 30.3366 290.557 30.7331 290.311 31.0703C290.069 31.4076 289.77 31.6696 289.415 31.8564C289.06 32.0433 288.652 32.1367 288.191 32.1367C287.722 32.1367 287.307 32.0592 286.947 31.9043C286.587 31.7493 286.282 31.5238 286.031 31.2275C285.781 30.9313 285.58 30.5758 285.43 30.1611C285.284 29.7464 285.184 29.2793 285.129 28.7598V27.9941C285.184 27.4473 285.286 26.9574 285.437 26.5244C285.587 26.0915 285.785 25.7223 286.031 25.417C286.282 25.1071 286.585 24.8724 286.94 24.7129C287.296 24.5488 287.706 24.4668 288.171 24.4668C288.636 24.4668 289.048 24.5579 289.408 24.7402C289.768 24.918 290.071 25.1732 290.317 25.5059C290.563 25.8385 290.748 26.2373 290.871 26.7021C290.999 27.1624 291.062 27.6751 291.062 28.2402ZM289.791 28.3838V28.2402C289.791 27.8711 289.752 27.5247 289.675 27.2012C289.597 26.873 289.477 26.5859 289.312 26.3398C289.153 26.0892 288.948 25.8932 288.697 25.752C288.447 25.6061 288.148 25.5332 287.802 25.5332C287.483 25.5332 287.205 25.5879 286.968 25.6973C286.735 25.8066 286.537 25.9548 286.373 26.1416C286.209 26.3239 286.075 26.5335 285.97 26.7705C285.869 27.0029 285.794 27.2445 285.744 27.4951V29.2656C285.835 29.5846 285.963 29.8854 286.127 30.168C286.291 30.446 286.51 30.6715 286.783 30.8447C287.057 31.0133 287.401 31.0977 287.815 31.0977C288.157 31.0977 288.451 31.027 288.697 30.8857C288.948 30.7399 289.153 30.5417 289.312 30.291C289.477 30.0404 289.597 29.7533 289.675 29.4297C289.752 29.1016 289.791 28.7529 289.791 28.3838ZM294.05 21.5V32H292.778V21.5H294.05ZM299.149 32.1367C298.634 32.1367 298.167 32.0501 297.748 31.877C297.333 31.6992 296.976 31.4508 296.675 31.1318C296.379 30.8128 296.151 30.4346 295.991 29.9971C295.832 29.5596 295.752 29.0811 295.752 28.5615V28.2744C295.752 27.6729 295.841 27.1374 296.019 26.668C296.196 26.194 296.438 25.793 296.743 25.4648C297.048 25.1367 297.395 24.8883 297.782 24.7197C298.17 24.5511 298.571 24.4668 298.985 24.4668C299.514 24.4668 299.97 24.5579 300.353 24.7402C300.74 24.9225 301.057 25.1777 301.303 25.5059C301.549 25.8294 301.731 26.2122 301.85 26.6543C301.968 27.0918 302.027 27.5703 302.027 28.0898V28.6572H296.504V27.625H300.763V27.5293C300.744 27.2012 300.676 26.8822 300.558 26.5723C300.444 26.2624 300.261 26.0072 300.011 25.8066C299.76 25.6061 299.418 25.5059 298.985 25.5059C298.698 25.5059 298.434 25.5674 298.192 25.6904C297.951 25.8089 297.743 25.9867 297.57 26.2236C297.397 26.4606 297.263 26.75 297.167 27.0918C297.071 27.4336 297.023 27.8278 297.023 28.2744V28.5615C297.023 28.9124 297.071 29.2428 297.167 29.5527C297.267 29.8581 297.411 30.127 297.598 30.3594C297.789 30.5918 298.019 30.7741 298.288 30.9062C298.561 31.0384 298.871 31.1045 299.218 31.1045C299.664 31.1045 300.043 31.0133 300.353 30.8311C300.662 30.6488 300.934 30.4049 301.166 30.0996L301.932 30.708C301.772 30.9495 301.569 31.1797 301.323 31.3984C301.077 31.6172 300.774 31.7949 300.414 31.9316C300.059 32.0684 299.637 32.1367 299.149 32.1367ZM306.601 24.6035V25.5742H302.602V24.6035H306.601ZM303.955 22.8057H305.22V30.168C305.22 30.4186 305.258 30.6077 305.336 30.7354C305.413 30.863 305.514 30.9473 305.637 30.9883C305.76 31.0293 305.892 31.0498 306.033 31.0498C306.138 31.0498 306.247 31.0407 306.361 31.0225C306.48 30.9997 306.569 30.9814 306.628 30.9678L306.635 32C306.534 32.0319 306.402 32.0615 306.238 32.0889C306.079 32.1208 305.885 32.1367 305.657 32.1367C305.347 32.1367 305.062 32.0752 304.803 31.9521C304.543 31.8291 304.336 31.624 304.181 31.3369C304.03 31.0452 303.955 30.6533 303.955 30.1611V22.8057ZM311.153 32.1367C310.638 32.1367 310.171 32.0501 309.752 31.877C309.337 31.6992 308.979 31.4508 308.679 31.1318C308.382 30.8128 308.155 30.4346 307.995 29.9971C307.836 29.5596 307.756 29.0811 307.756 28.5615V28.2744C307.756 27.6729 307.845 27.1374 308.022 26.668C308.2 26.194 308.442 25.793 308.747 25.4648C309.052 25.1367 309.399 24.8883 309.786 24.7197C310.173 24.5511 310.575 24.4668 310.989 24.4668C311.518 24.4668 311.974 24.5579 312.356 24.7402C312.744 24.9225 313.061 25.1777 313.307 25.5059C313.553 25.8294 313.735 26.2122 313.853 26.6543C313.972 27.0918 314.031 27.5703 314.031 28.0898V28.6572H308.508V27.625H312.767V27.5293C312.748 27.2012 312.68 26.8822 312.561 26.5723C312.448 26.2624 312.265 26.0072 312.015 25.8066C311.764 25.6061 311.422 25.5059 310.989 25.5059C310.702 25.5059 310.438 25.5674 310.196 25.6904C309.955 25.8089 309.747 25.9867 309.574 26.2236C309.401 26.4606 309.267 26.75 309.171 27.0918C309.075 27.4336 309.027 27.8278 309.027 28.2744V28.5615C309.027 28.9124 309.075 29.2428 309.171 29.5527C309.271 29.8581 309.415 30.127 309.602 30.3594C309.793 30.5918 310.023 30.7741 310.292 30.9062C310.565 31.0384 310.875 31.1045 311.222 31.1045C311.668 31.1045 312.047 31.0133 312.356 30.8311C312.666 30.6488 312.937 30.4049 313.17 30.0996L313.936 30.708C313.776 30.9495 313.573 31.1797 313.327 31.3984C313.081 31.6172 312.778 31.7949 312.418 31.9316C312.062 32.0684 311.641 32.1367 311.153 32.1367ZM320.17 30.5645V21.5H321.441V32H320.279L320.17 30.5645ZM315.193 28.3838V28.2402C315.193 27.6751 315.262 27.1624 315.398 26.7021C315.54 26.2373 315.738 25.8385 315.993 25.5059C316.253 25.1732 316.561 24.918 316.916 24.7402C317.276 24.5579 317.677 24.4668 318.119 24.4668C318.584 24.4668 318.99 24.5488 319.336 24.7129C319.687 24.8724 319.983 25.1071 320.225 25.417C320.471 25.7223 320.664 26.0915 320.806 26.5244C320.947 26.9574 321.045 27.4473 321.1 27.9941V28.623C321.049 29.1654 320.951 29.653 320.806 30.0859C320.664 30.5189 320.471 30.888 320.225 31.1934C319.983 31.4987 319.687 31.7334 319.336 31.8975C318.985 32.057 318.575 32.1367 318.105 32.1367C317.673 32.1367 317.276 32.0433 316.916 31.8564C316.561 31.6696 316.253 31.4076 315.993 31.0703C315.738 30.7331 315.54 30.3366 315.398 29.8809C315.262 29.4206 315.193 28.9215 315.193 28.3838ZM316.465 28.2402V28.3838C316.465 28.7529 316.501 29.0993 316.574 29.4229C316.652 29.7464 316.77 30.0312 316.93 30.2773C317.089 30.5234 317.292 30.7171 317.538 30.8584C317.784 30.9951 318.078 31.0635 318.42 31.0635C318.839 31.0635 319.183 30.9746 319.452 30.7969C319.726 30.6191 319.944 30.3844 320.108 30.0928C320.272 29.8011 320.4 29.4844 320.491 29.1426V27.4951C320.437 27.2445 320.357 27.0029 320.252 26.7705C320.152 26.5335 320.02 26.3239 319.855 26.1416C319.696 25.9548 319.498 25.8066 319.261 25.6973C319.028 25.5879 318.753 25.5332 318.434 25.5332C318.087 25.5332 317.789 25.6061 317.538 25.752C317.292 25.8932 317.089 26.0892 316.93 26.3398C316.77 26.5859 316.652 26.873 316.574 27.2012C316.501 27.5247 316.465 27.8711 316.465 28.2402Z" fill="#1C6FF7"/>
<path d="M347 38.5C353.351 38.5 358.5 33.3513 358.5 27C358.5 20.6487 353.351 15.5 347 15.5C340.649 15.5 335.5 20.6487 335.5 27C335.5 33.3513 340.649 38.5 347 38.5Z" fill="white" stroke="#1C6FF7"/>
</g>
</g>
<defs>
<filter id="filter0_d_3794_55242" x="9" y="12" width="357" height="38" filterUnits="userSpaceOnUse" color-interpolation-filters="sRGB">
<feFlood flood-opacity="0" result="BackgroundImageFix"/>
<feColorMatrix in="SourceAlpha" type="matrix" values="0 0 0 0 0 0 0 0 0 0 0 0 0 0 0 0 0 0 127 0" result="hardAlpha"/>
<feOffset dy="4"/>
<feGaussianBlur stdDeviation="3.5"/>
<feColorMatrix type="matrix" values="0 0 0 0 0 0 0 0 0 0 0 0 0 0 0 0 0 0 0.05 0"/>
<feBlend mode="normal" in2="BackgroundImageFix" result="effect1_dropShadow_3794_55242"/>
<feBlend mode="normal" in="SourceGraphic" in2="effect1_dropShadow_3794_55242" result="shape"/>
</filter>
<clipPath id="clip0_3794_55242">
<rect width="375" height="48" fill="white"/>
</clipPath>
</defs>
</svg>
